PathFileType	4	(X/Y/Z)	..\data\SUBJ01\dynamic\walk.trc
DataRate	CameraRate	NumFrames	NumMarkers	Units	OrigDataRate	OrigDataStartFrame	OrigNumFrames
100.000000	100.000000	4	33	mm	100.000000	26	337
Frame#	Time	LFHD			RFHD			LBHD			RBHD			C7			T10			CLAV			STRN			LSHO			LELB			LWRA			LWRB			LFIN			RSHO			RELB			RWRA			RWRB			RFIN			LASI			RASI			SACR			LTHI			LKNE			LTIB			LANK			LHEE			LTOE			RTHI			RKNE			RTIB			RANK			RHEE			RTOE			
		X1	Y1	Z1	X2	Y2	Z2	X3	Y3	Z3	X4	Y4	Z4	X5	Y5	Z5	X6	Y6	Z6	X7	Y7	Z7	X8	Y8	Z8	X9	Y9	Z9	X10	Y10	Z10	X11	Y11	Z11	X12	Y12	Z12	X13	Y13	Z13	X14	Y14	Z14	X15	Y15	Z15	X16	Y16	Z16	X17	Y17	Z17	X18	Y18	Z18	X19	Y19	Z19	X20	Y20	Z20	X21	Y21	Z21	X22	Y22	Z22	X23	Y23	Z23	X24	Y24	Z24	X25	Y25	Z25	X26	Y26	Z26	X27	Y27	Z27	X28	Y28	Z28	X29	Y29	Z29	X30	Y30	Z30	X31	Y31	Z31	X32	Y32	Z32	X33	Y33	Z33	

27	1.21	365.0356750488282	1550.195190429688	-266.2626953125001	346.0083618164063	1520.164306640625	-146.1446838378907	212.2634277343751	1476.302856445313	-291.3728942871094	196.6951293945313	1452.408935546875	-161.9961395263672	160.846923828125	1365.417602539063	-222.1208496093751	90.19949340820314	1146.34228515625	-235.0544433593751	306.2987060546876	1262.839721679688	-236.670394897461	361.0949707031251	1104.679443359375	-233.6499023437501	216.6810302734376	1326.440063476563	-397.7681579589845	210.319320678711	1033.732421875	-511.6018676757814	349.5967407226563	835.6352539062502	-488.2845153808595	308.6805419921876	814.2708740234377	-534.4797363281251	392.9478454589845	756.7412109375001	-510.1155090332032	234.8387756347657	1291.741333007813	-55.07940673828126	183.9261169433594	1002.326904296875	42.11856842041016	272.3558044433594	771.0813598632815	-6.915584087371828	213.903549194336	761.7652587890626	45.00483322143555	296.3664855957032	689.3892211914064	18.693510055542	276.9504699707032	879.074890136719	-372.0403137207032	273.0912780761719	864.5742187500002	-96.55116271972659	97.36067199707034	885.3535156250002	-232.5007934570313	220.395492553711	598.8496704101564	-442.7688598632814	238.5711517333985	428.6110229492189	-348.5941162109376	206.8585510253907	187.8700103759766	-366.0829467773438	207.4405670166016	62.05317687988283	-296.3948364257813	145.7419738769532	51.19167709350587	-258.7963562011719	312.1972656250001	46.91609954833985	-263.2712097167969	289.9981994628907	589.1805419921876	-42.38257217407227	356.8706970214844	429.9834899902345	-108.554313659668	200.081283569336	259.0599975585938	-77.50891113281251	97.7067794799805	183.7475738525391	-130.4427185058594	54.98550033569337	211.5399932861329	-183.734130859375	167.8669738769532	93.46298217773439	-153.7067413330078	
28	1.22	375.0119323730469	1550.741943359375	-265.9613647460938	355.6963806152344	1520.625122070313	-145.910140991211	222.2564544677735	1476.916259765625	-291.3991088867188	206.4599304199219	1452.923217773438	-162.061508178711	170.7134094238282	1365.920166015625	-222.5232391357422	100.276481628418	1146.766723632813	-235.789291381836	316.2496643066407	1263.424926757813	-236.4269714355469	371.0619812011719	1105.283325195313	-233.6251220703126	227.6038665771485	1327.2822265625	-397.7291259765626	225.2804412841797	1035.2880859375	-512.7599487304689	367.8172302246094	840.0010986328127	-486.1697692871095	328.3638610839844	817.650329589844	-533.0893554687501	413.3452758789064	761.9754028320314	-506.8040161132814	243.6210327148438	1292.190673828125	-54.9083709716797	188.7082824707032	1003.111022949219	41.6248893737793	276.1956481933594	771.326599121094	-6.366353034973146	216.7827453613282	762.3634033203126	44.5317726135254	299.1287536621094	689.4174194335939	19.48343467712403	286.7027893066407	879.4340820312502	-372.6483154296876	283.9553833007813	865.3458251953127	-97.06181335449222	107.5537185668946	885.814880371094	-232.2946777343751	226.7715454101563	599.5848999023439	-442.7440795898439	241.1296081542969	428.6118164062501	-348.5020141601563	207.7162170410157	187.9909362792969	-366.0019226074219	207.5573730468751	62.08914947509767	-296.2856445312501	145.8218994140625	51.39597320556642	-258.7175598144532	312.2546081542969	46.84692001342774	-263.1101989746094	305.9293518066407	591.7026977539064	-42.61374282836915	375.7361145019532	433.7657165527345	-109.2299423217774	225.8247528076172	255.9593200683594	-77.79247283935548	126.983268737793	176.1218414306641	-130.5932312011719	82.38854217529298	202.2822418212891	-183.5322265625	201.0270996093751	89.77223968505861	-154.2845306396485	
29	1.23	384.9333801269532	1551.12646484375	-265.7591247558594	365.3841857910157	1520.9521484375	-145.7605438232422	232.2090454101563	1477.326049804688	-291.4523315429688	216.2314758300782	1453.26708984375	-162.1398162841797	180.5781860351563	1366.239135742188	-222.8990631103516	110.358871459961	1147.0078125	-236.4077758789063	326.1952209472657	1263.8349609375	-236.1895446777344	381.0399780273438	1105.708251953125	-233.5848999023438	238.4367370605469	1327.89404296875	-397.6792297363282	240.1279296875001	1036.662475585938	-513.8331909179689	385.889617919922	844.320007324219	-484.010955810547	347.8983459472657	820.9869384765627	-531.5962524414064	433.5565185546876	767.2207641601564	-503.441131591797	252.4271850585938	1292.515380859375	-54.736141204834	193.4255676269532	1003.815063476563	41.12861633300782	280.2806701660157	771.5962524414065	-5.726711750030518	219.8096771240235	762.9074096679689	43.98230361938477	302.1343688964844	689.4819946289064	20.34923171997071	296.4403076171876	879.6224365234377	-373.2076416015626	294.8572998046876	865.9219970703127	-97.51362609863284	117.7564086914063	886.0947875976565	-232.0278778076172	233.047836303711	600.2647705078126	-442.7205505371095	243.6808013916016	428.6080627441407	-348.4425354003907	208.5093536376954	188.1240997314453	-365.9380493164063	207.6478424072266	62.1255340576172	-296.1980590820313	145.9012298583985	51.61022186279298	-258.6283874511719	312.3196105957032	46.78027725219727	-262.9736633300782	321.4125976562501	593.9803466796876	-42.7724838256836	393.9431152343751	437.2805480957032	-109.84521484375	251.6372070312501	252.5214843750001	-78.05068206787111	156.8738555908203	167.9717712402344	-130.7638549804688	110.4871597290039	192.2145080566407	-183.4480895996094	234.7987060546876	85.77851867675783	-154.7877807617188	
30	1.24	394.8210449218751	1551.342163085938	-265.6408386230469	375.0885620117188	1521.131469726563	-145.6825408935547	242.1405944824219	1477.53125	-291.5265197753907	226.0251617431641	1453.432006835938	-162.2278442382813	190.45458984375	1366.37158203125	-223.2435607910157	120.4509811401367	1147.066162109375	-236.9103393554688	336.1429138183594	1264.062255859375	-235.9627990722657	391.0318298339845	1105.945434570313	-233.5316925048829	249.1799621582032	1328.27294921875	-397.6236572265626	254.8547821044922	1037.846435546875	-514.8150634765626	403.795135498047	848.575866699219	-481.8138122558595	367.2620544433594	824.2740478515627	-530.0117187500001	453.5587463378907	772.4661254882815	-500.0488281250001	261.2782897949219	1292.70751953125	-54.56713104248048	198.1522064208985	1004.431030273438	40.62424850463868	284.6116943359376	771.8536376953127	-5.020812988281251	223.0175476074219	763.3782348632814	43.36779785156251	305.3816223144532	689.5395507812501	21.25926017761231	306.1606445312501	879.632507324219	-373.7210998535157	305.7695007324219	866.283874511719	-97.91392517089847	127.9720230102539	886.1936645507815	-231.7120056152344	239.2253112792969	600.8851318359376	-442.7020568847657	246.254135131836	428.5970153808595	-348.4159851074219	209.2499542236329	188.2698211669922	-365.8932495117188	207.7164154052735	62.16527175903322	-296.1280822753907	145.9781799316407	51.84013748168947	-258.5308532714844	312.3890075683594	46.71269607543946	-262.8622741699219	336.3769226074219	595.9513549804689	-42.87899017333985	411.4400329589845	440.467742919922	-110.3953399658203	277.5083007812501	248.7932281494141	-78.27115631103517	187.379379272461	159.4305267333985	-130.9426879882813	139.322509765625	181.4781036376953	-183.4634246826172	269.1518859863282	81.6184539794922	-155.207275390625	
